# 3ds Max Wavefront OBJ Exporter v0.97b - (c)2007 guruware
# File Created: 15.05.2019 11:57:54

mtllib Plane_maly.mtl

#
# object Plane001
#

v  -12.0384 0.0255 1.5703
v  -10.2009 0.0255 1.5703
v  -10.2009 2.4933 1.5703
v  -12.0384 2.4933 1.5703
# 4 vertices

vn -0.0000 -0.0000 1.0000
vn 0.0000 -0.0000 1.0000
# 2 vertex normals

vt 0.0000 0.0000 0.0000
vt 1.0000 0.0000 0.0000
vt 1.0000 1.0000 0.0000
vt 0.0000 1.0000 0.0000
# 4 texture coords

o Plane001
g Plane001
usemtl wire_153228153
s 1
f 1/1/1 2/2/1 3/3/2 4/4/2 
# 1 polygons

